<svg xmlns="http://www.w3.org/2000/svg" viewBox="0 0 648 167"><defs><style>.a{fill:#ff6392;}</style></defs><path class="a" d="M148.28,102.5h-124c1.25,2.33,2.29,4.54,3.55,6.61a49.44,49.44,0,0,0,22.41,19.74,1.63,1.63,0,0,1,1.16,1.81c-.08,2.06,0,4.12,0,6.17a4.2,4.2,0,0,0,4.2,4.17h61.58a4.21,4.21,0,0,0,4.2-4.17c0-2.1,0-4.2,0-6.3a1.7,1.7,0,0,1,1-1.61,49.42,49.42,0,0,0,19.84-15.77A47.72,47.72,0,0,0,148.28,102.5Zm-85-77A4.42,4.42,0,0,0,60,27.14a14.9,14.9,0,0,0,.15,20,9.81,9.81,0,0,1,2,3.08,6.94,6.94,0,0,1-1.71,7.34,3.84,3.84,0,1,0,5.66,5.19,15.49,15.49,0,0,0,2-2.53,14.75,14.75,0,0,0-2-18A7.16,7.16,0,0,1,66,32a3.65,3.65,0,0,0,.66-4.29A3.74,3.74,0,0,0,63.31,25.48Zm23.22,0a4.47,4.47,0,0,0-3.45,1.71,14.79,14.79,0,0,0,.28,20,7.2,7.2,0,0,1,.26,10.36,3.83,3.83,0,0,0,2,6.44,3.94,3.94,0,0,0,3.9-1.43,14.83,14.83,0,0,0-.18-20.28,7.4,7.4,0,0,1-2.24-5.42A7.21,7.21,0,0,1,89.13,32a3.7,3.7,0,0,0,.73-4.28A3.74,3.74,0,0,0,86.53,25.48Zm22.91,38.59a4.47,4.47,0,0,0,3.32-1.65,14.92,14.92,0,0,0-.13-20,9.71,9.71,0,0,1-2-3.07,6.93,6.93,0,0,1,1.7-7.35,3.78,3.78,0,0,0-.14-5.43,3.83,3.83,0,0,0-5.52.23,16,16,0,0,0-2,2.53,14.73,14.73,0,0,0,1.94,18,7.41,7.41,0,0,1,2.2,5,7.32,7.32,0,0,1-2.1,5.21,3.65,3.65,0,0,0-.67,4.29A3.75,3.75,0,0,0,109.44,64.07Z"/><path class="a" d="M20.2,84.71l.4-3c1-2,2.77-2.66,5.08-2.65q60.86.07,121.7,0a4.77,4.77,0,0,1,4.81,5c-.2,3.44-.67,6.88-1,10.34H21.77Z"/><path class="a" d="M148.28,102.5A50.69,50.69,0,0,1,137.1,119,51.23,51.23,0,0,1,122.29,129a1.44,1.44,0,0,0-1,1.58c.07,2.1,0,4.2,0,6.3a4.19,4.19,0,0,1-4.18,4.17H55.58a4.2,4.2,0,0,1-4.2-4.17c0-2.05-.06-4.11,0-6.17a1.63,1.63,0,0,0-1.16-1.81,49.44,49.44,0,0,1-22.41-19.74c-1.26-2.07-2.3-4.28-3.55-6.61Z"/><path class="a" d="M63.31,25.48a3.74,3.74,0,0,1,3.36,2.2A3.65,3.65,0,0,1,66,32a7.16,7.16,0,0,0,.09,10.25,14.75,14.75,0,0,1,2,18,15.49,15.49,0,0,1-2,2.53,3.84,3.84,0,1,1-5.66-5.19,6.94,6.94,0,0,0,1.71-7.34,9.81,9.81,0,0,0-2-3.08,14.9,14.9,0,0,1-.15-20A4.42,4.42,0,0,1,63.31,25.48Z"/><path class="a" d="M86.53,25.48a3.74,3.74,0,0,1,3.33,2.26A3.7,3.7,0,0,1,89.13,32a7.21,7.21,0,0,0-2.07,4.83,7.4,7.4,0,0,0,2.24,5.42,14.83,14.83,0,0,1,.18,20.28A3.94,3.94,0,0,1,85.58,64a3.83,3.83,0,0,1-2-6.44,7.2,7.2,0,0,0-.26-10.36,14.79,14.79,0,0,1-.28-20A4.47,4.47,0,0,1,86.53,25.48Z"/><path class="a" d="M109.44,64.07a3.75,3.75,0,0,1-3.37-2.21,3.65,3.65,0,0,1,.67-4.29,7.32,7.32,0,0,0,2.1-5.21,7.41,7.41,0,0,0-2.2-5,14.73,14.73,0,0,1-1.94-18,16,16,0,0,1,2-2.53,3.83,3.83,0,0,1,5.52-.23,3.78,3.78,0,0,1,.14,5.43,6.93,6.93,0,0,0-1.7,7.35,9.71,9.71,0,0,0,2,3.07,14.92,14.92,0,0,1,.13,20A4.47,4.47,0,0,1,109.44,64.07Z"/><path d="M190.5,94.5h16.25a4.24,4.24,0,0,1,3.79,2,8.26,8.26,0,0,1,1.3,4.61,8.69,8.69,0,0,1-1.19,4.28,4.14,4.14,0,0,1-3.9,2.11H190.5v18h29.21a4.15,4.15,0,0,1,3.81,2.26,10.53,10.53,0,0,1,1.31,5.35,11,11,0,0,1-1.2,5,4.08,4.08,0,0,1-3.92,2.37h-38.8a10,10,0,0,1-5.12-1.32,4.31,4.31,0,0,1-2.29-4V66.79a4.31,4.31,0,0,1,2.29-4,10,10,0,0,1,5.12-1.32h38.8a4.08,4.08,0,0,1,3.92,2.37,11,11,0,0,1,1.2,5,10.53,10.53,0,0,1-1.31,5.35,4.15,4.15,0,0,1-3.81,2.26H190.5Z"/><path d="M256.21,125.5h29.26a4.18,4.18,0,0,1,3.86,2.43,10.4,10.4,0,0,1,0,10.14,4.18,4.18,0,0,1-3.86,2.43H239.56a4.8,4.8,0,0,1-3.71-1.24,4.52,4.52,0,0,1-1.13-3.17,11.78,11.78,0,0,1,1.83-5.92L266.88,76.5H241.94a4.23,4.23,0,0,1-3.86-2.26A10.2,10.2,0,0,1,236.76,69,11.08,11.08,0,0,1,238,63.87a4.14,4.14,0,0,1,4-2.37h41.59a4.84,4.84,0,0,1,3.66,1.24,4.38,4.38,0,0,1,1.18,3.17,12.67,12.67,0,0,1-1.83,5.92Z"/><path class="a" d="M340,112.86a5.8,5.8,0,0,1-2.63,2.52,7.88,7.88,0,0,1-3.07.65,7.12,7.12,0,0,1-3-.65,5.42,5.42,0,0,1-2.41-2.52L318.5,93.79v41.87a3.94,3.94,0,0,1-2.51,3.69,12.87,12.87,0,0,1-11,0,3.94,3.94,0,0,1-2.51-3.69V70.21a9.68,9.68,0,0,1,.7-3.88,7,7,0,0,1,4.57-4.09,11.63,11.63,0,0,1,3.12-.43,33.23,33.23,0,0,1,4,.22,8,8,0,0,1,3.17,1.08,11.09,11.09,0,0,1,2.85,2.53,29.81,29.81,0,0,1,3,4.57L335,89.58l11.08-19.37a29.09,29.09,0,0,1,3-4.57A11.09,11.09,0,0,1,352,63.11,8,8,0,0,1,355.12,62a33.23,33.23,0,0,1,4-.22,9.6,9.6,0,0,1,5.81,1.89q2.58,1.88,2.58,6.51v65.3a4.19,4.19,0,0,1-2.67,3.92,13.63,13.63,0,0,1-11.66,0,4.19,4.19,0,0,1-2.67-3.92V94.88Z"/><path class="a" d="M399.5,94.5h16.25a4.24,4.24,0,0,1,3.79,2,8.26,8.26,0,0,1,1.3,4.61,8.69,8.69,0,0,1-1.19,4.28,4.14,4.14,0,0,1-3.9,2.11H399.5v18h29.21a4.15,4.15,0,0,1,3.81,2.26,10.53,10.53,0,0,1,1.31,5.35,11,11,0,0,1-1.2,5,4.08,4.08,0,0,1-3.92,2.37h-38.8a10,10,0,0,1-5.12-1.32,4.31,4.31,0,0,1-2.29-4V66.79a4.31,4.31,0,0,1,2.29-4,10,10,0,0,1,5.12-1.32h38.8a4.08,4.08,0,0,1,3.92,2.37,11,11,0,0,1,1.2,5,10.53,10.53,0,0,1-1.31,5.35,4.15,4.15,0,0,1-3.81,2.26H399.5Z"/><path class="a" d="M453.65,141.13a13.07,13.07,0,0,1-3.61-.54,15.64,15.64,0,0,1-3.51-1.46,9.27,9.27,0,0,1-2.65-2.16,4.17,4.17,0,0,1-1-2.75,5.63,5.63,0,0,1,.22-1.19l20.09-65.88a6.75,6.75,0,0,1,4-4.21,18,18,0,0,1,13.93,0,6.8,6.8,0,0,1,4.05,4.21L505.39,133a6.12,6.12,0,0,1,.21,1.19,4.21,4.21,0,0,1-1,2.75,9.41,9.41,0,0,1-2.65,2.16,15.64,15.64,0,0,1-3.51,1.46,13.19,13.19,0,0,1-3.62.54,8,8,0,0,1-3.51-.7,3.82,3.82,0,0,1-2-2.43l-3.67-13.5H462.83L459.16,138a3.79,3.79,0,0,1-2,2.43A8,8,0,0,1,453.65,141.13Zm28.41-29.63-7.89-28.94-7.88,28.94Z"/><path class="a" d="M524.91,140.5a10,10,0,0,1-5.12-1.32,4.31,4.31,0,0,1-2.29-4V65.06a4.1,4.1,0,0,1,2.67-4,14.54,14.54,0,0,1,11.66,0,4.1,4.1,0,0,1,2.67,4V125.5h24.85a3.91,3.91,0,0,1,3.7,2.32,11.78,11.78,0,0,1,0,10.36,3.91,3.91,0,0,1-3.7,2.32Z"/><path class="a" d="M599.08,126.67a18.38,18.38,0,0,0,3.73-.38,11.1,11.1,0,0,0,3.4-1.24,7.1,7.1,0,0,0,2.43-2.21,5.75,5.75,0,0,0,.92-3.3,7,7,0,0,0-2.54-5.45,30.15,30.15,0,0,0-6.32-4.1q-3.78-1.89-8.26-3.89a40.4,40.4,0,0,1-8.26-4.91,25.76,25.76,0,0,1-6.32-7.13,20.25,20.25,0,0,1-2.54-10.59,19.81,19.81,0,0,1,8.75-17.22,27.34,27.34,0,0,1,8.86-3.89,41.14,41.14,0,0,1,10-1.24q2.16,0,5.78.32a40.28,40.28,0,0,1,7.13,1.3,18,18,0,0,1,6,2.86,6,6,0,0,1,2.53,5,10.93,10.93,0,0,1-.37,2.59,11.65,11.65,0,0,1-1.19,2.92,7.61,7.61,0,0,1-2.11,2.37,4.88,4.88,0,0,1-3,1,5.91,5.91,0,0,1-2.76-.65c-.82-.43-1.76-.9-2.8-1.41a26,26,0,0,0-3.73-1.4,19.65,19.65,0,0,0-5.51-.65q-5.84,0-8.31,2a5.72,5.72,0,0,0-2.49,4.48,5.45,5.45,0,0,0,2.54,4.54A37.35,37.35,0,0,0,601,90q3.78,1.74,8.26,3.73a35.44,35.44,0,0,1,8.26,5.13,26.81,26.81,0,0,1,6.32,7.67,23,23,0,0,1,2.54,11.34,25.12,25.12,0,0,1-2,10.31,20.44,20.44,0,0,1-5.62,7.51,25.05,25.05,0,0,1-8.58,4.59,35.86,35.86,0,0,1-10.8,1.56,40.94,40.94,0,0,1-10-1.19,34.84,34.84,0,0,1-8.31-3.13,18.39,18.39,0,0,1-5.62-4.48,8.25,8.25,0,0,1-2-5.24,8.56,8.56,0,0,1,.59-3,12.77,12.77,0,0,1,1.57-2.91,9.26,9.26,0,0,1,2.32-2.27,5,5,0,0,1,2.86-.92,6,6,0,0,1,3.62,1.24q1.68,1.24,3.67,2.76a26.06,26.06,0,0,0,4.65,2.75A15,15,0,0,0,599.08,126.67Z"/></svg>